<svg width="50" height="20" viewBox="0 0 49 19" version="1.1" xmlns="http://www.w3.org/2000/svg" preserveAspectRatio="none"><defs><linearGradient id="2g8g2mavjf5" x1="0%" y1="0%" x2="0%" y2="100%"><stop offset="0%" style="stop-color: rgb(36, 174, 100); stop-opacity: 0.5;"></stop><stop offset="90%" style="stop-color: rgb(36, 174, 100); stop-opacity: 0;"></stop></linearGradient></defs><path d="M-1 20L-1 6.56L0 6.56L2.17 7.56L4.34 8.28L6.51 8.35L8.68 9.29L10.85 8.75L13.02 8.02L15.19 7.53L17.36 6.96L19.53 11.74L21.7 18L23.87 16.04L26.04 15.63L28.21 14.28L30.38 11.84L32.55 10.48L34.72 10.45L36.89 8.29L39.06 9.26L41.23 8.12L43.4 7.53L45.57 6.87L47.74 5.41L49.91 5L51 21 Z" fill="url(#2g8g2mavjf5)" stroke="rgba(24, 22, 55, .11)" stroke-width="1"></path></svg>