<svg width="50" height="20" viewBox="0 0 49 19" version="1.1" xmlns="http://www.w3.org/2000/svg"
    preserveAspectRatio="none">
    <defs>
        <linearGradient id="0rydc5iy0bsi" x1="0%" y1="0%" x2="0%" y2="100%">
            <stop offset="0%" style="stop-color: rgb(36, 174, 100); stop-opacity: 0.5;"></stop>
            <stop offset="90%" style="stop-color: rgb(36, 174, 100); stop-opacity: 0;"></stop>
        </linearGradient>
    </defs>
    <path
        d="M-1 20L-1 15.26L0 15.26L2.17 16.55L4.34 18L6.51 17.02L8.68 14.83L10.85 12.08L13.02 14.73L15.19 14.82L17.36 16.93L19.53 15.62L21.7 14.16L23.87 16.29L26.04 14.83L28.21 15.81L30.38 14.74L32.55 15.5L34.72 15.06L36.89 14.3L39.06 12.23L41.23 9.96L43.4 9.94L45.57 11.27L47.74 6.92L49.91 5L51 21 Z"
        fill="url(#0rydc5iy0bsi)" stroke="rgba(24, 22, 55, .11)" stroke-width="1"></path>
</svg>
