<svg width="40" height="40" viewBox="0 0 40 40" fill="none" xmlns="http://www.w3.org/2000/svg">
<path d="M12.568 22.4563C12.8296 22.4563 13.0854 22.3784 13.3029 22.2324C13.5205 22.0864 13.69 21.8788 13.7901 21.636C13.8903 21.3932 13.9165 21.1261 13.8654 20.8683C13.8144 20.6106 13.6884 20.3738 13.5034 20.188C13.3184 20.0022 13.0827 19.8756 12.8261 19.8244C12.5695 19.7731 12.3035 19.7994 12.0618 19.9C11.8201 20.0005 11.6135 20.1708 11.4681 20.3894C11.3228 20.6079 11.2452 20.8648 11.2452 21.1276C11.2452 21.48 11.3846 21.8179 11.6326 22.0671C11.8807 22.3163 12.2172 22.4563 12.568 22.4563ZM27.1797 22.4563C27.4414 22.4563 27.6971 22.3784 27.9147 22.2324C28.1322 22.0864 28.3018 21.8788 28.4019 21.636C28.502 21.3932 28.5282 21.1261 28.4772 20.8683C28.4261 20.6106 28.3001 20.3738 28.1151 20.188C27.9301 20.0022 27.6944 19.8756 27.4378 19.8244C27.1812 19.7731 26.9152 19.7994 26.6735 19.9C26.4318 20.0005 26.2252 20.1708 26.0799 20.3894C25.9345 20.6079 25.8569 20.8648 25.8569 21.1276C25.8569 21.48 25.9963 21.8179 26.2444 22.0671C26.4924 22.3163 26.8289 22.4563 27.1797 22.4563ZM12.094 14.4573L9.45166 9.86212C9.40962 9.79919 9.38089 9.72826 9.36725 9.65372C9.35361 9.57918 9.35535 9.50262 9.37236 9.42879C9.38938 9.35495 9.4213 9.28541 9.46616 9.22448C9.51102 9.16354 9.56786 9.1125 9.63315 9.07452C9.69845 9.03655 9.77081 9.01244 9.84575 9.0037C9.9207 8.99495 9.99664 9.00176 10.0689 9.02369C10.1411 9.04562 10.208 9.08222 10.2656 9.13121C10.3232 9.18019 10.3701 9.24053 10.4035 9.30848L13.079 13.9629C15.216 13.0002 17.5317 12.5024 19.8739 12.5024C22.2161 12.5024 24.5317 13.0002 26.6688 13.9629L29.3442 9.30848C29.3776 9.24053 29.4246 9.18019 29.4821 9.13121C29.5397 9.08222 29.6067 9.04562 29.6789 9.02369C29.7511 9.00176 29.8271 8.99495 29.902 9.0037C29.977 9.01244 30.0493 9.03655 30.1146 9.07452C30.1799 9.1125 30.2367 9.16354 30.2816 9.22448C30.3265 9.28541 30.3584 9.35495 30.3754 9.42879C30.3924 9.50262 30.3941 9.57918 30.3805 9.65372C30.3669 9.72826 30.3381 9.79919 30.2961 9.86212L27.6538 14.4573C32.1911 16.936 35.2936 21.5494 35.7478 27H3.99996C4.45413 21.5494 7.55726 16.936 12.094 14.4573Z" fill="#95C045"/>
</svg>
