<svg width="40" height="40" viewBox="0 0 40 40" fill="none" xmlns="http://www.w3.org/2000/svg">
<path d="M33.9931 7.52499L32.5465 6.07847C32.492 6.02388 32.4237 6 32.3521 6C32.2804 6 32.2122 6.02729 32.1576 6.07847L29.5614 8.67471C28.4117 7.89345 27.0743 7.50452 25.737 7.50452C23.9902 7.50452 22.2435 8.16979 20.9095 9.50373L17.4331 12.9802C17.3273 13.0859 17.3273 13.2599 17.4331 13.3657L26.7024 22.635C26.757 22.6896 26.8253 22.7135 26.8969 22.7135C26.9651 22.7135 27.0368 22.6862 27.0914 22.635L30.5678 19.1586C32.9184 16.8046 33.1948 13.1644 31.3968 10.5102L33.9931 7.91392C34.0988 7.80475 34.0988 7.63075 33.9931 7.52499Z" fill="black"/>
<path d="M22.1992 21.2712C22.0935 21.1655 21.9195 21.1655 21.8137 21.2712L19.5416 23.5434L16.4609 20.4627L18.7364 18.1871C18.8422 18.0814 18.8422 17.9074 18.7364 17.8016L17.4946 16.5598C17.3888 16.454 17.2148 16.454 17.1091 16.5598L14.8335 18.8353L13.3665 17.3683C13.3119 17.3138 13.2437 17.2899 13.1721 17.2899C13.1038 17.2899 13.0322 17.3172 12.9776 17.3683L9.50458 20.8448C7.15398 23.1954 6.87764 26.839 8.67556 29.4932L6.07932 32.0895C5.97356 32.1952 5.97356 32.3692 6.07932 32.475L7.52585 33.9215C7.58043 33.9761 7.64866 34 7.72031 34C7.79195 34 7.86018 33.9727 7.91477 33.9215L10.511 31.3253C11.6607 32.1065 12.9981 32.4955 14.3354 32.4955C16.0822 32.4955 17.8289 31.8302 19.1629 30.4962L22.6393 27.0198C22.7451 26.9141 22.7451 26.7401 22.6393 26.6343L21.1723 25.1673L23.4479 22.8918C23.5536 22.786 23.5536 22.612 23.4479 22.5062L22.1992 21.2712Z" fill="black"/>
</svg>
