<svg width="40" height="40" viewBox="0 0 40 40" fill="none" xmlns="http://www.w3.org/2000/svg">
<path d="M28.0286 19.66C28.0424 18.5867 28.3275 17.5343 28.8574 16.6008C29.3872 15.6672 30.1446 14.8829 31.059 14.3207C30.4781 13.491 29.7118 12.8083 28.8208 12.3266C27.9299 11.845 26.9389 11.5777 25.9266 11.546C23.7672 11.3193 21.6737 12.8382 20.5733 12.8382C19.4516 12.8382 17.7574 11.5685 15.933 11.6061C14.7529 11.6442 13.6028 11.9873 12.5948 12.6021C11.5867 13.2169 10.7551 14.0823 10.181 15.114C7.69398 19.4199 9.54908 25.7481 11.9314 29.2287C13.1234 30.933 14.5164 32.8368 16.3392 32.7693C18.1229 32.6953 18.7891 31.6319 20.9421 31.6319C23.0752 31.6319 23.7002 32.7693 25.56 32.7263C27.474 32.6953 28.6799 31.0144 29.83 29.294C30.6864 28.0796 31.3454 26.7374 31.7826 25.3171C30.6706 24.8468 29.7217 24.0596 29.0542 23.0536C28.3866 22.0476 28.0299 20.8674 28.0286 19.66V19.66Z" fill="#121214"/>
<path d="M24.5218 9.25976C25.5654 8.00698 26.0796 6.39674 25.9551 4.771C24.3607 4.93845 22.8879 5.70046 21.8303 6.90517C21.3131 7.49371 20.9171 8.1784 20.6647 8.92009C20.4123 9.66179 20.3086 10.446 20.3595 11.2278C21.157 11.236 21.9459 11.0631 22.6669 10.7222C23.3879 10.3813 24.0221 9.8813 24.5218 9.25976Z" fill="#121214"/>
</svg>
